%TF.GenerationSoftware,KiCad,Pcbnew,10.0.0*%
%TF.CreationDate,2026-05-27T14:26:35+05:00*%
%TF.ProjectId,HackPad,4861636b-5061-4642-9e6b-696361645f70,rev?*%
%TF.SameCoordinates,Original*%
%TF.FileFunction,Copper,L2,Bot*%
%TF.FilePolarity,Positive*%
%FSLAX46Y46*%
G04 Gerber Fmt 4.6, Leading zero omitted, Abs format (unit mm)*
G04 Created by KiCad (PCBNEW 10.0.0) date 2026-05-27 14:26:35*
%MOMM*%
%LPD*%
G01*
G04 APERTURE LIST*
G04 Aperture macros list*
%AMRoundRect*
0 Rectangle with rounded corners*
0 $1 Rounding radius*
0 $2 $3 $4 $5 $6 $7 $8 $9 X,Y pos of 4 corners*
0 Add a 4 corners polygon primitive as box body*
4,1,4,$2,$3,$4,$5,$6,$7,$8,$9,$2,$3,0*
0 Add four circle primitives for the rounded corners*
1,1,$1+$1,$2,$3*
1,1,$1+$1,$4,$5*
1,1,$1+$1,$6,$7*
1,1,$1+$1,$8,$9*
0 Add four rect primitives between the rounded corners*
20,1,$1+$1,$2,$3,$4,$5,0*
20,1,$1+$1,$4,$5,$6,$7,0*
20,1,$1+$1,$6,$7,$8,$9,0*
20,1,$1+$1,$8,$9,$2,$3,0*%
G04 Aperture macros list end*
%TA.AperFunction,ComponentPad*%
%ADD10C,2.200000*%
%TD*%
%TA.AperFunction,ComponentPad*%
%ADD11R,3.500000X1.700000*%
%TD*%
%TA.AperFunction,ComponentPad*%
%ADD12O,3.600000X1.700000*%
%TD*%
%TA.AperFunction,ComponentPad*%
%ADD13O,3.700000X1.700000*%
%TD*%
%TA.AperFunction,ComponentPad*%
%ADD14RoundRect,0.250000X-0.550000X0.550000X-0.550000X-0.550000X0.550000X-0.550000X0.550000X0.550000X0*%
%TD*%
%TA.AperFunction,ComponentPad*%
%ADD15C,1.600000*%
%TD*%
%TA.AperFunction,ComponentPad*%
%ADD16R,1.700000X1.700000*%
%TD*%
%TA.AperFunction,ComponentPad*%
%ADD17C,1.700000*%
%TD*%
%TA.AperFunction,ViaPad*%
%ADD18C,0.600000*%
%TD*%
%TA.AperFunction,Conductor*%
%ADD19C,0.200000*%
%TD*%
G04 APERTURE END LIST*
D10*
%TO.P,SW13,1,1_1*%
%TO.N,Net-(D13-A)*%
X186700000Y-134850000D03*
%TO.P,SW13,2,2_2*%
%TO.N,/GPA6*%
X180350000Y-137390000D03*
%TD*%
%TO.P,SW10,1,1_1*%
%TO.N,Net-(D10-A)*%
X181937500Y-115800000D03*
%TO.P,SW10,2,2_2*%
%TO.N,/GPB5*%
X175587500Y-118340000D03*
%TD*%
D11*
%TO.P,U1,1,PA02_A0_D0_1*%
%TO.N,unconnected-(U1-PA02_A0_D0-Pad1)*%
X161000000Y-53000000D03*
D12*
%TO.P,U1,2,PA4_A1_D1_2*%
%TO.N,unconnected-(U1-PA4_A1_D1-Pad2)*%
X161000000Y-55540000D03*
%TO.P,U1,3,PA10_A2_D2_3*%
%TO.N,unconnected-(U1-PA10_A2_D2-Pad3)*%
X161000000Y-58080000D03*
%TO.P,U1,4,PA11_A3_D3_4*%
%TO.N,unconnected-(U1-PA11_A3_D3-Pad4)*%
X161000000Y-60620000D03*
%TO.P,U1,5,PA8_A4_D4_SDA_5*%
%TO.N,/SDA*%
X161000000Y-63160000D03*
%TO.P,U1,6,PA9_A5_D5_SCL_6*%
%TO.N,/SCL*%
X161000000Y-65700000D03*
%TO.P,U1,7,PB08_A6_D6_TX_7*%
%TO.N,unconnected-(U1-PB08_A6_D6_TX-Pad7)*%
X161000000Y-68240000D03*
%TO.P,U1,8,PB09_A7_D7_RX_8*%
%TO.N,unconnected-(U1-PB09_A7_D7_RX-Pad8)*%
X178250000Y-68240000D03*
%TO.P,U1,9,PA7_A8_D8_SCK_9*%
%TO.N,unconnected-(U1-PA7_A8_D8_SCK-Pad9)*%
X178250000Y-65700000D03*
%TO.P,U1,10,PA5_A9_D9_MISO_10*%
%TO.N,unconnected-(U1-PA5_A9_D9_MISO-Pad10)*%
X178250000Y-63160000D03*
D13*
%TO.P,U1,11,PA6_A10_D10_MOSI_11*%
%TO.N,unconnected-(U1-PA6_A10_D10_MOSI-Pad11)*%
X178250000Y-60620000D03*
%TO.P,U1,12,3V3_12*%
%TO.N,/PWR*%
X178250000Y-58080000D03*
%TO.P,U1,13,GND_13*%
%TO.N,GND*%
X178250000Y-55540000D03*
%TO.P,U1,14,5V_14*%
%TO.N,unconnected-(U1-5V-Pad14)*%
X178250000Y-53000000D03*
%TD*%
D10*
%TO.P,SW7,1,1_1*%
%TO.N,Net-(D7-A)*%
X177175000Y-96750000D03*
%TO.P,SW7,2,2_2*%
%TO.N,/GPB2*%
X170825000Y-99290000D03*
%TD*%
%TO.P,SW4,1,1_1*%
%TO.N,Net-(D4-A)*%
X150627500Y-73870000D03*
%TO.P,SW4,2,2_2*%
%TO.N,Net-(U2-GPA0)*%
X144277500Y-76410000D03*
%TD*%
%TO.P,SW8,1,1_1*%
%TO.N,Net-(D8-A)*%
X143837500Y-115800000D03*
%TO.P,SW8,2,2_2*%
%TO.N,/GPB3*%
X137487500Y-118340000D03*
%TD*%
D14*
%TO.P,U2,1,GPB0_1*%
%TO.N,/GPB0*%
X193400000Y-73500000D03*
D15*
%TO.P,U2,2,GPB1_2*%
%TO.N,/GPB1*%
X190860000Y-73500000D03*
%TO.P,U2,3,GPB2_3*%
%TO.N,/GPB2*%
X188320000Y-73500000D03*
%TO.P,U2,4,GPB3_4*%
%TO.N,/GPB3*%
X185780000Y-73500000D03*
%TO.P,U2,5,GPB4_5*%
%TO.N,/GPB4*%
X183240000Y-73500000D03*
%TO.P,U2,6,GPB5_6*%
%TO.N,/GPB5*%
X180700000Y-73500000D03*
%TO.P,U2,7,GPB6_7*%
%TO.N,/GPB6*%
X178160000Y-73500000D03*
%TO.P,U2,8,GPB7_8*%
%TO.N,/GPB7*%
X175620000Y-73500000D03*
%TO.P,U2,9,V_{DD}_9*%
%TO.N,/PWR*%
X173080000Y-73500000D03*
%TO.P,U2,10,V_{SS}_10*%
%TO.N,GND*%
X170540000Y-73500000D03*
%TO.P,U2,11,NC_11*%
%TO.N,unconnected-(U2-NC-Pad11)*%
X168000000Y-73500000D03*
%TO.P,U2,12,SCK_12*%
%TO.N,/SCL*%
X165460000Y-73500000D03*
%TO.P,U2,13,SDA_13*%
%TO.N,/SDA*%
X162920000Y-73500000D03*
%TO.P,U2,14,NC_14*%
%TO.N,unconnected-(U2-NC-Pad14)*%
X160380000Y-73500000D03*
%TO.P,U2,15,A0_15*%
%TO.N,GND*%
X160380000Y-81120000D03*
%TO.P,U2,16,A1_16*%
X162920000Y-81120000D03*
%TO.P,U2,17,A2_17*%
X165460000Y-81120000D03*
%TO.P,U2,18,~{RESET}_18*%
%TO.N,/PWR*%
X168000000Y-81120000D03*
%TO.P,U2,19,INTB_19*%
%TO.N,unconnected-(U2-INTB-Pad19)*%
X170540000Y-81120000D03*
%TO.P,U2,20,INTA_20*%
%TO.N,unconnected-(U2-INTA-Pad20)*%
X173080000Y-81120000D03*
%TO.P,U2,21,GPA0_21*%
%TO.N,Net-(U2-GPA0)*%
X175620000Y-81120000D03*
%TO.P,U2,22,GPA1_22*%
%TO.N,Net-(U2-GPA1)*%
X178160000Y-81120000D03*
%TO.P,U2,23,GPA2_23*%
%TO.N,Net-(U2-GPA2)*%
X180700000Y-81120000D03*
%TO.P,U2,24,GPA3_24*%
%TO.N,Net-(U2-GPA3)*%
X183240000Y-81120000D03*
%TO.P,U2,25,GPA4_25*%
%TO.N,unconnected-(U2-GPA4-Pad25)*%
X185780000Y-81120000D03*
%TO.P,U2,26,GPA5_26*%
%TO.N,unconnected-(U2-GPA5-Pad26)*%
X188320000Y-81120000D03*
%TO.P,U2,27,GPA6_27*%
%TO.N,/GPA6*%
X190860000Y-81120000D03*
%TO.P,U2,28,GPA7_28*%
%TO.N,/GPA7*%
X193400000Y-81120000D03*
%TD*%
D10*
%TO.P,SW3,1,1_1*%
%TO.N,Net-(D3-A)*%
X131577500Y-73870000D03*
%TO.P,SW3,2,2_2*%
%TO.N,Net-(U2-GPA1)*%
X125227500Y-76410000D03*
%TD*%
D16*
%TO.P,J1,1,Pin_1_1*%
%TO.N,/PWR*%
X198000000Y-52980000D03*
D17*
%TO.P,J1,2,Pin_2_2*%
%TO.N,GND*%
X198000000Y-55520000D03*
%TO.P,J1,3,Pin_3_3*%
%TO.N,/SDA*%
X198000000Y-58060000D03*
%TO.P,J1,4,Pin_4_4*%
%TO.N,/SCL*%
X198000000Y-60600000D03*
%TO.P,J1,5,Pin_5_5*%
%TO.N,/GPB0*%
X198000000Y-63140000D03*
%TO.P,J1,6,Pin_6_6*%
%TO.N,/GPB1*%
X198000000Y-65680000D03*
%TO.P,J1,7,Pin_7_7*%
%TO.N,/GPB2*%
X198000000Y-68220000D03*
%TO.P,J1,8,Pin_8_8*%
%TO.N,/GPB3*%
X198000000Y-70760000D03*
%TO.P,J1,9,Pin_9_9*%
%TO.N,/GPB4*%
X198000000Y-73300000D03*
%TO.P,J1,10,Pin_10_10*%
%TO.N,/GPB5*%
X198000000Y-75840000D03*
%TO.P,J1,11,Pin_11_11*%
%TO.N,/GPB6*%
X198000000Y-78380000D03*
%TO.P,J1,12,Pin_12_12*%
%TO.N,/GPB7*%
X198000000Y-80920000D03*
%TO.P,J1,13,Pin_13_13*%
%TO.N,/GPA6*%
X198000000Y-83460000D03*
%TO.P,J1,14,Pin_14_14*%
%TO.N,/GPA7*%
X198000000Y-86000000D03*
%TD*%
D10*
%TO.P,SW11,1,1_1*%
%TO.N,Net-(D11-A)*%
X148600000Y-134850000D03*
%TO.P,SW11,2,2_2*%
%TO.N,/GPB6*%
X142250000Y-137390000D03*
%TD*%
%TO.P,SW9,1,1_1*%
%TO.N,Net-(D9-A)*%
X162887500Y-115800000D03*
%TO.P,SW9,2,2_2*%
%TO.N,/GPB4*%
X156537500Y-118340000D03*
%TD*%
%TO.P,SW6,1,1_1*%
%TO.N,Net-(D6-A)*%
X158125000Y-96750000D03*
%TO.P,SW6,2,2_2*%
%TO.N,/GPB1*%
X151775000Y-99290000D03*
%TD*%
%TO.P,SW12,1,1_1*%
%TO.N,Net-(D12-A)*%
X167650000Y-134850000D03*
%TO.P,SW12,2,2_2*%
%TO.N,/GPB7*%
X161300000Y-137390000D03*
%TD*%
%TO.P,SW2,1,1_1*%
%TO.N,Net-(D2-A)*%
X112527500Y-73870000D03*
%TO.P,SW2,2,2_2*%
%TO.N,Net-(U2-GPA2)*%
X106177500Y-76410000D03*
%TD*%
D16*
%TO.P,J2,1,Pin_1_1*%
%TO.N,/PWR*%
X102000000Y-103920000D03*
D17*
%TO.P,J2,2,Pin_2_2*%
%TO.N,GND*%
X102000000Y-106460000D03*
%TO.P,J2,3,Pin_3_3*%
%TO.N,/SDA*%
X102000000Y-109000000D03*
%TO.P,J2,4,Pin_4_4*%
%TO.N,/SCL*%
X102000000Y-111540000D03*
%TO.P,J2,5,Pin_5_5*%
%TO.N,/GPB0*%
X102000000Y-114080000D03*
%TO.P,J2,6,Pin_6_6*%
%TO.N,/GPB1*%
X102000000Y-116620000D03*
%TO.P,J2,7,Pin_7_7*%
%TO.N,/GPB2*%
X102000000Y-119160000D03*
%TO.P,J2,8,Pin_8_8*%
%TO.N,/GPB3*%
X102000000Y-121700000D03*
%TO.P,J2,9,Pin_9_9*%
%TO.N,/GPB4*%
X102000000Y-124240000D03*
%TO.P,J2,10,Pin_10_10*%
%TO.N,/GPB5*%
X102000000Y-126780000D03*
%TO.P,J2,11,Pin_11_11*%
%TO.N,/GPB6*%
X102000000Y-129320000D03*
%TO.P,J2,12,Pin_12_12*%
%TO.N,/GPB7*%
X102000000Y-131860000D03*
%TO.P,J2,13,Pin_13_13*%
%TO.N,/GPA6*%
X102000000Y-134400000D03*
%TO.P,J2,14,Pin_14_14*%
%TO.N,/GPA7*%
X102000000Y-136940000D03*
%TD*%
D10*
%TO.P,SW1,1,1_1*%
%TO.N,Net-(D1-A)*%
X126815000Y-54820000D03*
%TO.P,SW1,2,2_2*%
%TO.N,Net-(U2-GPA3)*%
X120465000Y-57360000D03*
%TD*%
%TO.P,SW5,1,1_1*%
%TO.N,Net-(D5-A)*%
X139075000Y-96750000D03*
%TO.P,SW5,2,2_2*%
%TO.N,/GPB0*%
X132725000Y-99290000D03*
%TD*%
D18*
%TO.N,GND*%
X157368500Y-144500000D03*
X157368500Y-125646400D03*
X157780000Y-106400000D03*
%TO.N,/GPB2*%
X105208200Y-106427500D03*
%TO.N,/GPB1*%
X104322100Y-106126700D03*
%TO.N,/GPB6*%
X120500000Y-133500000D03*
%TD*%
%TO.N,GND*%
D19*
X157974400Y-106594400D02*
X157974400Y-119327700D01*
X157780000Y-106400000D02*
X157974400Y-106594400D01*
X165460000Y-78580000D02*
X170540000Y-73500000D01*
X157368500Y-119933600D02*
X157368500Y-125646400D01*
X157974400Y-119327700D02*
X157368500Y-119933600D01*
X170540000Y-61098300D02*
X170540000Y-73500000D01*
X157368500Y-125646400D02*
X157368500Y-144500000D01*
X165460000Y-81120000D02*
X165460000Y-78580000D01*
X177250000Y-55540000D02*
X176098300Y-55540000D01*
X176098300Y-55540000D02*
X170540000Y-61098300D01*
%TO.N,/SDA*%
X163503400Y-72916600D02*
X163503400Y-63561700D01*
X162550900Y-63160000D02*
X162000000Y-63160000D01*
X162920000Y-73500000D02*
X163503400Y-72916600D01*
X163503400Y-63561700D02*
X163101700Y-63160000D01*
X162550900Y-63160000D02*
X163101700Y-63160000D01*
%TO.N,/SCL*%
X162000000Y-65700000D02*
X163101700Y-65700000D01*
X162444100Y-74603000D02*
X161749300Y-73908200D01*
X161749300Y-70751400D02*
X163101700Y-69399000D01*
X163101700Y-69399000D02*
X163101700Y-65700000D01*
X161749300Y-73908200D02*
X161749300Y-70751400D01*
X165460000Y-73500000D02*
X164357000Y-74603000D01*
X164357000Y-74603000D02*
X162444100Y-74603000D01*
%TO.N,/PWR*%
X173080000Y-73500000D02*
X168000000Y-78580000D01*
X177250000Y-58080000D02*
X176098300Y-58080000D01*
X168000000Y-78580000D02*
X168000000Y-81120000D01*
X173080000Y-73500000D02*
X176098300Y-70481700D01*
X176098300Y-70481700D02*
X176098300Y-58080000D01*
%TO.N,/GPB2*%
X105208200Y-106427500D02*
X105208200Y-115951800D01*
X105208200Y-115951800D02*
X102000000Y-119160000D01*
%TO.N,/GPB0*%
X197474500Y-67068300D02*
X193400000Y-71142800D01*
X198336300Y-67068300D02*
X197474500Y-67068300D01*
X199195000Y-64335000D02*
X199195000Y-66209600D01*
X193400000Y-71142800D02*
X193400000Y-73500000D01*
X198000000Y-63140000D02*
X199195000Y-64335000D01*
X199195000Y-66209600D02*
X198336300Y-67068300D01*
%TO.N,/GPB1*%
X190860000Y-72820000D02*
X190860000Y-73500000D01*
X104322100Y-114297900D02*
X102000000Y-116620000D01*
X104322100Y-106126700D02*
X104322100Y-114297900D01*
X198000000Y-65680000D02*
X190860000Y-72820000D01*
%TO.N,/GPB6*%
X102000000Y-129320000D02*
X106180000Y-133500000D01*
X106180000Y-133500000D02*
X120500000Y-133500000D01*
%TO.N,/GPA7*%
X193400000Y-81120000D02*
X193400000Y-81400000D01*
X193400000Y-81400000D02*
X198000000Y-86000000D01*
%TD*%
M02*
