%TF.GenerationSoftware,KiCad,Pcbnew,10.0.0*%
%TF.CreationDate,2026-05-27T14:26:35+05:00*%
%TF.ProjectId,HackPad,4861636b-5061-4642-9e6b-696361645f70,rev?*%
%TF.SameCoordinates,Original*%
%TF.FileFunction,Copper,L1,Top*%
%TF.FilePolarity,Positive*%
%FSLAX46Y46*%
G04 Gerber Fmt 4.6, Leading zero omitted, Abs format (unit mm)*
G04 Created by KiCad (PCBNEW 10.0.0) date 2026-05-27 14:26:35*
%MOMM*%
%LPD*%
G01*
G04 APERTURE LIST*
G04 Aperture macros list*
%AMRoundRect*
0 Rectangle with rounded corners*
0 $1 Rounding radius*
0 $2 $3 $4 $5 $6 $7 $8 $9 X,Y pos of 4 corners*
0 Add a 4 corners polygon primitive as box body*
4,1,4,$2,$3,$4,$5,$6,$7,$8,$9,$2,$3,0*
0 Add four circle primitives for the rounded corners*
1,1,$1+$1,$2,$3*
1,1,$1+$1,$4,$5*
1,1,$1+$1,$6,$7*
1,1,$1+$1,$8,$9*
0 Add four rect primitives between the rounded corners*
20,1,$1+$1,$2,$3,$4,$5,0*
20,1,$1+$1,$4,$5,$6,$7,0*
20,1,$1+$1,$6,$7,$8,$9,0*
20,1,$1+$1,$8,$9,$2,$3,0*%
G04 Aperture macros list end*
%TA.AperFunction,SMDPad,CuDef*%
%ADD10RoundRect,0.225000X0.375000X-0.225000X0.375000X0.225000X-0.375000X0.225000X-0.375000X-0.225000X0*%
%TD*%
%TA.AperFunction,ComponentPad*%
%ADD11C,2.200000*%
%TD*%
%TA.AperFunction,ComponentPad*%
%ADD12R,3.500000X1.700000*%
%TD*%
%TA.AperFunction,ComponentPad*%
%ADD13O,3.600000X1.700000*%
%TD*%
%TA.AperFunction,ComponentPad*%
%ADD14O,3.700000X1.700000*%
%TD*%
%TA.AperFunction,SMDPad,CuDef*%
%ADD15RoundRect,0.250000X-0.475000X0.337500X-0.475000X-0.337500X0.475000X-0.337500X0.475000X0.337500X0*%
%TD*%
%TA.AperFunction,ComponentPad*%
%ADD16RoundRect,0.250000X-0.550000X0.550000X-0.550000X-0.550000X0.550000X-0.550000X0.550000X0.550000X0*%
%TD*%
%TA.AperFunction,ComponentPad*%
%ADD17C,1.600000*%
%TD*%
%TA.AperFunction,ComponentPad*%
%ADD18R,1.700000X1.700000*%
%TD*%
%TA.AperFunction,ComponentPad*%
%ADD19C,1.700000*%
%TD*%
%TA.AperFunction,ViaPad*%
%ADD20C,0.600000*%
%TD*%
%TA.AperFunction,Conductor*%
%ADD21C,0.200000*%
%TD*%
G04 APERTURE END LIST*
D10*
%TO.P,D13,1,K_1*%
%TO.N,GND*%
X192500000Y-144500000D03*
%TO.P,D13,2,A_2*%
%TO.N,Net-(D13-A)*%
X192500000Y-141200000D03*
%TD*%
%TO.P,D1,1,K_1*%
%TO.N,GND*%
X132615000Y-64470000D03*
%TO.P,D1,2,A_2*%
%TO.N,Net-(D1-A)*%
X132615000Y-61170000D03*
%TD*%
D11*
%TO.P,SW13,1,1_1*%
%TO.N,Net-(D13-A)*%
X186700000Y-134850000D03*
%TO.P,SW13,2,2_2*%
%TO.N,/GPA6*%
X180350000Y-137390000D03*
%TD*%
D10*
%TO.P,D9,1,K_1*%
%TO.N,GND*%
X168687500Y-125450000D03*
%TO.P,D9,2,A_2*%
%TO.N,Net-(D9-A)*%
X168687500Y-122150000D03*
%TD*%
%TO.P,D3,1,K_1*%
%TO.N,GND*%
X137377500Y-83520000D03*
%TO.P,D3,2,A_2*%
%TO.N,Net-(D3-A)*%
X137377500Y-80220000D03*
%TD*%
D11*
%TO.P,SW10,1,1_1*%
%TO.N,Net-(D10-A)*%
X181937500Y-115800000D03*
%TO.P,SW10,2,2_2*%
%TO.N,/GPB5*%
X175587500Y-118340000D03*
%TD*%
D12*
%TO.P,U1,1,PA02_A0_D0_1*%
%TO.N,unconnected-(U1-PA02_A0_D0-Pad1)*%
X161000000Y-53000000D03*
D13*
%TO.P,U1,2,PA4_A1_D1_2*%
%TO.N,unconnected-(U1-PA4_A1_D1-Pad2)*%
X161000000Y-55540000D03*
%TO.P,U1,3,PA10_A2_D2_3*%
%TO.N,unconnected-(U1-PA10_A2_D2-Pad3)*%
X161000000Y-58080000D03*
%TO.P,U1,4,PA11_A3_D3_4*%
%TO.N,unconnected-(U1-PA11_A3_D3-Pad4)*%
X161000000Y-60620000D03*
%TO.P,U1,5,PA8_A4_D4_SDA_5*%
%TO.N,/SDA*%
X161000000Y-63160000D03*
%TO.P,U1,6,PA9_A5_D5_SCL_6*%
%TO.N,/SCL*%
X161000000Y-65700000D03*
%TO.P,U1,7,PB08_A6_D6_TX_7*%
%TO.N,unconnected-(U1-PB08_A6_D6_TX-Pad7)*%
X161000000Y-68240000D03*
%TO.P,U1,8,PB09_A7_D7_RX_8*%
%TO.N,unconnected-(U1-PB09_A7_D7_RX-Pad8)*%
X178250000Y-68240000D03*
%TO.P,U1,9,PA7_A8_D8_SCK_9*%
%TO.N,unconnected-(U1-PA7_A8_D8_SCK-Pad9)*%
X178250000Y-65700000D03*
%TO.P,U1,10,PA5_A9_D9_MISO_10*%
%TO.N,unconnected-(U1-PA5_A9_D9_MISO-Pad10)*%
X178250000Y-63160000D03*
D14*
%TO.P,U1,11,PA6_A10_D10_MOSI_11*%
%TO.N,unconnected-(U1-PA6_A10_D10_MOSI-Pad11)*%
X178250000Y-60620000D03*
%TO.P,U1,12,3V3_12*%
%TO.N,/PWR*%
X178250000Y-58080000D03*
%TO.P,U1,13,GND_13*%
%TO.N,GND*%
X178250000Y-55540000D03*
%TO.P,U1,14,5V_14*%
%TO.N,unconnected-(U1-5V-Pad14)*%
X178250000Y-53000000D03*
%TD*%
D10*
%TO.P,D7,1,K_1*%
%TO.N,GND*%
X182975000Y-106400000D03*
%TO.P,D7,2,A_2*%
%TO.N,Net-(D7-A)*%
X182975000Y-103100000D03*
%TD*%
D11*
%TO.P,SW7,1,1_1*%
%TO.N,Net-(D7-A)*%
X177175000Y-96750000D03*
%TO.P,SW7,2,2_2*%
%TO.N,/GPB2*%
X170825000Y-99290000D03*
%TD*%
D10*
%TO.P,D6,1,K_1*%
%TO.N,GND*%
X163925000Y-106400000D03*
%TO.P,D6,2,A_2*%
%TO.N,Net-(D6-A)*%
X163925000Y-103100000D03*
%TD*%
%TO.P,D4,1,K_1*%
%TO.N,GND*%
X156427500Y-83520000D03*
%TO.P,D4,2,A_2*%
%TO.N,Net-(D4-A)*%
X156427500Y-80220000D03*
%TD*%
%TO.P,D2,1,K_1*%
%TO.N,GND*%
X118327500Y-83520000D03*
%TO.P,D2,2,A_2*%
%TO.N,Net-(D2-A)*%
X118327500Y-80220000D03*
%TD*%
D15*
%TO.P,C1,1*%
%TO.N,GND*%
X182000000Y-55925000D03*
%TO.P,C1,2*%
%TO.N,/PWR*%
X182000000Y-58000000D03*
%TD*%
D11*
%TO.P,SW4,1,1_1*%
%TO.N,Net-(D4-A)*%
X150627500Y-73870000D03*
%TO.P,SW4,2,2_2*%
%TO.N,Net-(U2-GPA0)*%
X144277500Y-76410000D03*
%TD*%
D10*
%TO.P,D8,1,K_1*%
%TO.N,GND*%
X149637500Y-125450000D03*
%TO.P,D8,2,A_2*%
%TO.N,Net-(D8-A)*%
X149637500Y-122150000D03*
%TD*%
D11*
%TO.P,SW8,1,1_1*%
%TO.N,Net-(D8-A)*%
X143837500Y-115800000D03*
%TO.P,SW8,2,2_2*%
%TO.N,/GPB3*%
X137487500Y-118340000D03*
%TD*%
D16*
%TO.P,U2,1,GPB0_1*%
%TO.N,/GPB0*%
X193400000Y-73500000D03*
D17*
%TO.P,U2,2,GPB1_2*%
%TO.N,/GPB1*%
X190860000Y-73500000D03*
%TO.P,U2,3,GPB2_3*%
%TO.N,/GPB2*%
X188320000Y-73500000D03*
%TO.P,U2,4,GPB3_4*%
%TO.N,/GPB3*%
X185780000Y-73500000D03*
%TO.P,U2,5,GPB4_5*%
%TO.N,/GPB4*%
X183240000Y-73500000D03*
%TO.P,U2,6,GPB5_6*%
%TO.N,/GPB5*%
X180700000Y-73500000D03*
%TO.P,U2,7,GPB6_7*%
%TO.N,/GPB6*%
X178160000Y-73500000D03*
%TO.P,U2,8,GPB7_8*%
%TO.N,/GPB7*%
X175620000Y-73500000D03*
%TO.P,U2,9,V_{DD}_9*%
%TO.N,/PWR*%
X173080000Y-73500000D03*
%TO.P,U2,10,V_{SS}_10*%
%TO.N,GND*%
X170540000Y-73500000D03*
%TO.P,U2,11,NC_11*%
%TO.N,unconnected-(U2-NC-Pad11)*%
X168000000Y-73500000D03*
%TO.P,U2,12,SCK_12*%
%TO.N,/SCL*%
X165460000Y-73500000D03*
%TO.P,U2,13,SDA_13*%
%TO.N,/SDA*%
X162920000Y-73500000D03*
%TO.P,U2,14,NC_14*%
%TO.N,unconnected-(U2-NC-Pad14)*%
X160380000Y-73500000D03*
%TO.P,U2,15,A0_15*%
%TO.N,GND*%
X160380000Y-81120000D03*
%TO.P,U2,16,A1_16*%
X162920000Y-81120000D03*
%TO.P,U2,17,A2_17*%
X165460000Y-81120000D03*
%TO.P,U2,18,~{RESET}_18*%
%TO.N,/PWR*%
X168000000Y-81120000D03*
%TO.P,U2,19,INTB_19*%
%TO.N,unconnected-(U2-INTB-Pad19)*%
X170540000Y-81120000D03*
%TO.P,U2,20,INTA_20*%
%TO.N,unconnected-(U2-INTA-Pad20)*%
X173080000Y-81120000D03*
%TO.P,U2,21,GPA0_21*%
%TO.N,Net-(U2-GPA0)*%
X175620000Y-81120000D03*
%TO.P,U2,22,GPA1_22*%
%TO.N,Net-(U2-GPA1)*%
X178160000Y-81120000D03*
%TO.P,U2,23,GPA2_23*%
%TO.N,Net-(U2-GPA2)*%
X180700000Y-81120000D03*
%TO.P,U2,24,GPA3_24*%
%TO.N,Net-(U2-GPA3)*%
X183240000Y-81120000D03*
%TO.P,U2,25,GPA4_25*%
%TO.N,unconnected-(U2-GPA4-Pad25)*%
X185780000Y-81120000D03*
%TO.P,U2,26,GPA5_26*%
%TO.N,unconnected-(U2-GPA5-Pad26)*%
X188320000Y-81120000D03*
%TO.P,U2,27,GPA6_27*%
%TO.N,/GPA6*%
X190860000Y-81120000D03*
%TO.P,U2,28,GPA7_28*%
%TO.N,/GPA7*%
X193400000Y-81120000D03*
%TD*%
D11*
%TO.P,SW3,1,1_1*%
%TO.N,Net-(D3-A)*%
X131577500Y-73870000D03*
%TO.P,SW3,2,2_2*%
%TO.N,Net-(U2-GPA1)*%
X125227500Y-76410000D03*
%TD*%
D18*
%TO.P,J1,1,Pin_1_1*%
%TO.N,/PWR*%
X198000000Y-52980000D03*
D19*
%TO.P,J1,2,Pin_2_2*%
%TO.N,GND*%
X198000000Y-55520000D03*
%TO.P,J1,3,Pin_3_3*%
%TO.N,/SDA*%
X198000000Y-58060000D03*
%TO.P,J1,4,Pin_4_4*%
%TO.N,/SCL*%
X198000000Y-60600000D03*
%TO.P,J1,5,Pin_5_5*%
%TO.N,/GPB0*%
X198000000Y-63140000D03*
%TO.P,J1,6,Pin_6_6*%
%TO.N,/GPB1*%
X198000000Y-65680000D03*
%TO.P,J1,7,Pin_7_7*%
%TO.N,/GPB2*%
X198000000Y-68220000D03*
%TO.P,J1,8,Pin_8_8*%
%TO.N,/GPB3*%
X198000000Y-70760000D03*
%TO.P,J1,9,Pin_9_9*%
%TO.N,/GPB4*%
X198000000Y-73300000D03*
%TO.P,J1,10,Pin_10_10*%
%TO.N,/GPB5*%
X198000000Y-75840000D03*
%TO.P,J1,11,Pin_11_11*%
%TO.N,/GPB6*%
X198000000Y-78380000D03*
%TO.P,J1,12,Pin_12_12*%
%TO.N,/GPB7*%
X198000000Y-80920000D03*
%TO.P,J1,13,Pin_13_13*%
%TO.N,/GPA6*%
X198000000Y-83460000D03*
%TO.P,J1,14,Pin_14_14*%
%TO.N,/GPA7*%
X198000000Y-86000000D03*
%TD*%
D11*
%TO.P,SW11,1,1_1*%
%TO.N,Net-(D11-A)*%
X148600000Y-134850000D03*
%TO.P,SW11,2,2_2*%
%TO.N,/GPB6*%
X142250000Y-137390000D03*
%TD*%
%TO.P,SW9,1,1_1*%
%TO.N,Net-(D9-A)*%
X162887500Y-115800000D03*
%TO.P,SW9,2,2_2*%
%TO.N,/GPB4*%
X156537500Y-118340000D03*
%TD*%
%TO.P,SW6,1,1_1*%
%TO.N,Net-(D6-A)*%
X158125000Y-96750000D03*
%TO.P,SW6,2,2_2*%
%TO.N,/GPB1*%
X151775000Y-99290000D03*
%TD*%
%TO.P,SW12,1,1_1*%
%TO.N,Net-(D12-A)*%
X167650000Y-134850000D03*
%TO.P,SW12,2,2_2*%
%TO.N,/GPB7*%
X161300000Y-137390000D03*
%TD*%
D10*
%TO.P,D5,1,K_1*%
%TO.N,GND*%
X144875000Y-106400000D03*
%TO.P,D5,2,A_2*%
%TO.N,Net-(D5-A)*%
X144875000Y-103100000D03*
%TD*%
D11*
%TO.P,SW2,1,1_1*%
%TO.N,Net-(D2-A)*%
X112527500Y-73870000D03*
%TO.P,SW2,2,2_2*%
%TO.N,Net-(U2-GPA2)*%
X106177500Y-76410000D03*
%TD*%
D10*
%TO.P,D12,1,K_1*%
%TO.N,GND*%
X173450000Y-144500000D03*
%TO.P,D12,2,A_2*%
%TO.N,Net-(D12-A)*%
X173450000Y-141200000D03*
%TD*%
D18*
%TO.P,J2,1,Pin_1_1*%
%TO.N,/PWR*%
X102000000Y-103920000D03*
D19*
%TO.P,J2,2,Pin_2_2*%
%TO.N,GND*%
X102000000Y-106460000D03*
%TO.P,J2,3,Pin_3_3*%
%TO.N,/SDA*%
X102000000Y-109000000D03*
%TO.P,J2,4,Pin_4_4*%
%TO.N,/SCL*%
X102000000Y-111540000D03*
%TO.P,J2,5,Pin_5_5*%
%TO.N,/GPB0*%
X102000000Y-114080000D03*
%TO.P,J2,6,Pin_6_6*%
%TO.N,/GPB1*%
X102000000Y-116620000D03*
%TO.P,J2,7,Pin_7_7*%
%TO.N,/GPB2*%
X102000000Y-119160000D03*
%TO.P,J2,8,Pin_8_8*%
%TO.N,/GPB3*%
X102000000Y-121700000D03*
%TO.P,J2,9,Pin_9_9*%
%TO.N,/GPB4*%
X102000000Y-124240000D03*
%TO.P,J2,10,Pin_10_10*%
%TO.N,/GPB5*%
X102000000Y-126780000D03*
%TO.P,J2,11,Pin_11_11*%
%TO.N,/GPB6*%
X102000000Y-129320000D03*
%TO.P,J2,12,Pin_12_12*%
%TO.N,/GPB7*%
X102000000Y-131860000D03*
%TO.P,J2,13,Pin_13_13*%
%TO.N,/GPA6*%
X102000000Y-134400000D03*
%TO.P,J2,14,Pin_14_14*%
%TO.N,/GPA7*%
X102000000Y-136940000D03*
%TD*%
D10*
%TO.P,D10,1,K_1*%
%TO.N,GND*%
X187737500Y-125450000D03*
%TO.P,D10,2,A_2*%
%TO.N,Net-(D10-A)*%
X187737500Y-122150000D03*
%TD*%
D11*
%TO.P,SW1,1,1_1*%
%TO.N,Net-(D1-A)*%
X126815000Y-54820000D03*
%TO.P,SW1,2,2_2*%
%TO.N,Net-(U2-GPA3)*%
X120465000Y-57360000D03*
%TD*%
%TO.P,SW5,1,1_1*%
%TO.N,Net-(D5-A)*%
X139075000Y-96750000D03*
%TO.P,SW5,2,2_2*%
%TO.N,/GPB0*%
X132725000Y-99290000D03*
%TD*%
D10*
%TO.P,D11,1,K_1*%
%TO.N,GND*%
X154400000Y-144500000D03*
%TO.P,D11,2,A_2*%
%TO.N,Net-(D11-A)*%
X154400000Y-141200000D03*
%TD*%
D20*
%TO.N,GND*%
X157368500Y-144500000D03*
X157368500Y-125646400D03*
X157780000Y-106400000D03*
%TO.N,/GPB2*%
X105208200Y-106427500D03*
%TO.N,/GPB1*%
X104322100Y-106126700D03*
%TO.N,/GPB6*%
X120500000Y-133500000D03*
%TD*%
%TO.N,GND*%
D21*
X139387000Y-71242000D02*
X132615000Y-64470000D01*
X180786700Y-55925000D02*
X180401700Y-55540000D01*
X157368500Y-125450000D02*
X157523600Y-125450000D01*
X160320700Y-106400000D02*
X163925000Y-106400000D01*
X167861800Y-125450000D02*
X157564900Y-125450000D01*
X156427500Y-83520000D02*
X158827500Y-81120000D01*
X102569200Y-107029200D02*
X144245800Y-107029200D01*
X158827500Y-81120000D02*
X160380000Y-81120000D01*
X118327500Y-83520000D02*
X137377500Y-83520000D01*
X157368500Y-125450000D02*
X157368500Y-125646400D01*
X149637500Y-125450000D02*
X157368500Y-125450000D01*
X167861800Y-125450000D02*
X187737500Y-125450000D01*
X170540000Y-73500000D02*
X168282000Y-71242000D01*
X137377500Y-83520000D02*
X147704600Y-83520000D01*
X102000000Y-106460000D02*
X102569200Y-107029200D01*
X154400000Y-144500000D02*
X156965500Y-144500000D01*
X144875000Y-106400000D02*
X160320700Y-106400000D01*
X155501200Y-83520000D02*
X156427500Y-83520000D01*
X157780000Y-106400000D02*
X160320700Y-106400000D01*
X198000000Y-55520000D02*
X182405000Y-55520000D01*
X192500000Y-144500000D02*
X173450000Y-144500000D01*
X177250000Y-55540000D02*
X180401700Y-55540000D01*
X144245800Y-107029200D02*
X144875000Y-106400000D01*
X160380000Y-81120000D02*
X162920000Y-81120000D01*
X155439500Y-83520000D02*
X155501200Y-83520000D01*
X147704600Y-83520000D02*
X147745900Y-83520000D01*
X168282000Y-71242000D02*
X139387000Y-71242000D01*
X157368500Y-144500000D02*
X173450000Y-144500000D01*
X156965500Y-144500000D02*
X157006800Y-144500000D01*
X150104600Y-83520000D02*
X155439500Y-83520000D01*
X182000000Y-55925000D02*
X180786700Y-55925000D01*
X147745900Y-83520000D02*
X150104600Y-83520000D01*
X157006800Y-144500000D02*
X157368500Y-144500000D01*
X182405000Y-55520000D02*
X182000000Y-55925000D01*
X182975000Y-106400000D02*
X163925000Y-106400000D01*
X165460000Y-81120000D02*
X162920000Y-81120000D01*
X167861800Y-125450000D02*
X168687500Y-125450000D01*
X157523600Y-125450000D02*
X157564900Y-125450000D01*
%TO.N,Net-(D13-A)*%
X186700000Y-134850000D02*
X192500000Y-140650000D01*
X192500000Y-140650000D02*
X192500000Y-141200000D01*
%TO.N,Net-(D1-A)*%
X132615000Y-60620000D02*
X132615000Y-61170000D01*
X126815000Y-54820000D02*
X132615000Y-60620000D01*
%TO.N,/GPA6*%
X102000000Y-134400000D02*
X100791600Y-133191600D01*
X100791600Y-133191600D02*
X100791600Y-131360500D01*
X100791600Y-131360500D02*
X101465700Y-130686400D01*
X193200000Y-83460000D02*
X190860000Y-81120000D01*
X198000000Y-83460000D02*
X193200000Y-83460000D01*
X173646400Y-130686400D02*
X180350000Y-137390000D01*
X101465700Y-130686400D02*
X173646400Y-130686400D01*
%TO.N,Net-(D9-A)*%
X162887500Y-116350000D02*
X162887500Y-115800000D01*
X168687500Y-122150000D02*
X162887500Y-116350000D01*
%TO.N,Net-(D3-A)*%
X137377500Y-80220000D02*
X137377500Y-79670000D01*
X137377500Y-79670000D02*
X131577500Y-73870000D01*
%TO.N,Net-(D10-A)*%
X181937500Y-115800000D02*
X187737500Y-121600000D01*
X187737500Y-121600000D02*
X187737500Y-122150000D01*
%TO.N,/GPB5*%
X102000000Y-126780000D02*
X104110300Y-124669700D01*
X173863200Y-118340000D02*
X175587500Y-118340000D01*
X183040000Y-75840000D02*
X180700000Y-73500000D01*
X198000000Y-75840000D02*
X183040000Y-75840000D01*
X104110300Y-124669700D02*
X167533500Y-124669700D01*
X167533500Y-124669700D02*
X173863200Y-118340000D01*
%TO.N,/SDA*%
X179999800Y-59230200D02*
X179880000Y-59350000D01*
X166911700Y-59350000D02*
X163101700Y-63160000D01*
X196829800Y-59230200D02*
X179999800Y-59230200D01*
X198000000Y-58060000D02*
X196829800Y-59230200D01*
X162000000Y-63160000D02*
X163101700Y-63160000D01*
X179880000Y-59350000D02*
X166911700Y-59350000D01*
%TO.N,/SCL*%
X162000000Y-65700000D02*
X163101700Y-65700000D01*
X164451300Y-64350400D02*
X163101700Y-65700000D01*
X198000000Y-60600000D02*
X194249600Y-64350400D01*
X194249600Y-64350400D02*
X164451300Y-64350400D01*
%TO.N,/PWR*%
X183097700Y-56902300D02*
X182000000Y-58000000D01*
X198254500Y-56902300D02*
X183097700Y-56902300D01*
X180481700Y-58000000D02*
X182000000Y-58000000D01*
X180401700Y-58080000D02*
X180481700Y-58000000D01*
X199162600Y-55994200D02*
X198254500Y-56902300D01*
X198000000Y-52980000D02*
X198000000Y-54131700D01*
X198000000Y-54131700D02*
X198287900Y-54131700D01*
X198287900Y-54131700D02*
X199162600Y-55006400D01*
X199162600Y-55006400D02*
X199162600Y-55994200D01*
X177250000Y-58080000D02*
X180401700Y-58080000D01*
%TO.N,Net-(D7-A)*%
X182975000Y-102550000D02*
X182975000Y-103100000D01*
X177175000Y-96750000D02*
X182975000Y-102550000D01*
%TO.N,/GPB2*%
X163546300Y-104899500D02*
X106736200Y-104899500D01*
X106736200Y-104899500D02*
X105208200Y-106427500D01*
X188320000Y-73500000D02*
X193600000Y-68220000D01*
X170825000Y-99290000D02*
X169155800Y-99290000D01*
X193600000Y-68220000D02*
X198000000Y-68220000D01*
X169155800Y-99290000D02*
X163546300Y-104899500D01*
%TO.N,Net-(D6-A)*%
X163925000Y-103100000D02*
X158125000Y-97300000D01*
X158125000Y-97300000D02*
X158125000Y-96750000D01*
%TO.N,Net-(D4-A)*%
X150769500Y-73870000D02*
X150627500Y-73870000D01*
X156427500Y-79528000D02*
X150769500Y-73870000D01*
X156427500Y-80220000D02*
X156427500Y-79528000D01*
%TO.N,Net-(D2-A)*%
X112527500Y-74420000D02*
X112527500Y-73870000D01*
X118327500Y-80220000D02*
X112527500Y-74420000D01*
%TO.N,Net-(U2-GPA0)*%
X174509400Y-80009400D02*
X157984200Y-80009400D01*
X157984200Y-80009400D02*
X156962600Y-81031000D01*
X152618600Y-76340700D02*
X144346800Y-76340700D01*
X155284400Y-79006500D02*
X152618600Y-76340700D01*
X156962600Y-81031000D02*
X155869800Y-81031000D01*
X175620000Y-81120000D02*
X174509400Y-80009400D01*
X144346800Y-76340700D02*
X144277500Y-76410000D01*
X155284400Y-80445600D02*
X155284400Y-79006500D01*
X155869800Y-81031000D02*
X155284400Y-80445600D01*
%TO.N,Net-(D8-A)*%
X143837500Y-116350000D02*
X143837500Y-115800000D01*
X149637500Y-122150000D02*
X143837500Y-116350000D01*
%TO.N,/GPB3*%
X137670000Y-118340000D02*
X137670000Y-121479200D01*
X186888900Y-74608900D02*
X185780000Y-73500000D01*
X137670000Y-121479200D02*
X136841200Y-122308000D01*
X198000000Y-70760000D02*
X192026500Y-70760000D01*
X102608000Y-122308000D02*
X102000000Y-121700000D01*
X189421700Y-73957300D02*
X188770100Y-74608900D01*
X192026500Y-70760000D02*
X189421700Y-73364800D01*
X136841200Y-122308000D02*
X102608000Y-122308000D01*
X189421700Y-73364800D02*
X189421700Y-73957300D01*
X137670000Y-118340000D02*
X137487500Y-118340000D01*
X188770100Y-74608900D02*
X186888900Y-74608900D01*
%TO.N,/GPB0*%
X105054400Y-105253000D02*
X111017400Y-99290000D01*
X100848300Y-112928300D02*
X100848300Y-105953800D01*
X102000000Y-114080000D02*
X100848300Y-112928300D01*
X101549100Y-105253000D02*
X105054400Y-105253000D01*
X111017400Y-99290000D02*
X132725000Y-99290000D01*
X100848300Y-105953800D02*
X101549100Y-105253000D01*
%TO.N,/GPB1*%
X151775000Y-99290000D02*
X151950800Y-99465800D01*
X106635000Y-104381700D02*
X105190900Y-105825800D01*
X105190900Y-105825800D02*
X104623000Y-105825800D01*
X151950800Y-99465800D02*
X151950800Y-102396500D01*
X151950800Y-102396500D02*
X149965600Y-104381700D01*
X149965600Y-104381700D02*
X106635000Y-104381700D01*
X104623000Y-105825800D02*
X104322100Y-106126700D01*
%TO.N,/GPB4*%
X196256100Y-75043900D02*
X198000000Y-73300000D01*
X184783900Y-75043900D02*
X196256100Y-75043900D01*
X102000000Y-124240000D02*
X149501600Y-124240000D01*
X149501600Y-124240000D02*
X155401600Y-118340000D01*
X155401600Y-118340000D02*
X156537500Y-118340000D01*
X183240000Y-73500000D02*
X184783900Y-75043900D01*
%TO.N,/GPB6*%
X183040000Y-78380000D02*
X178160000Y-73500000D01*
X198000000Y-78380000D02*
X183040000Y-78380000D01*
X142250000Y-137390000D02*
X124390000Y-137390000D01*
X124390000Y-137390000D02*
X120500000Y-133500000D01*
%TO.N,/GPB7*%
X181037700Y-78917700D02*
X175620000Y-73500000D01*
X102000000Y-131860000D02*
X155770000Y-131860000D01*
X198000000Y-80920000D02*
X195997700Y-78917700D01*
X155770000Y-131860000D02*
X161300000Y-137390000D01*
X195997700Y-78917700D02*
X181037700Y-78917700D01*
%TO.N,Net-(U2-GPA1)*%
X158059300Y-79319400D02*
X174884600Y-79319400D01*
X174884600Y-79319400D02*
X175293300Y-79728100D01*
X125227500Y-76410000D02*
X129190400Y-72447100D01*
X151187000Y-72447100D02*
X158059300Y-79319400D01*
X129190400Y-72447100D02*
X151187000Y-72447100D01*
X175786200Y-79728100D02*
X177178100Y-81120000D01*
X177178100Y-81120000D02*
X178160000Y-81120000D01*
X175293300Y-79728100D02*
X175786200Y-79728100D01*
%TO.N,Net-(U2-GPA2)*%
X175050900Y-78917700D02*
X158225600Y-78917700D01*
X180700000Y-81120000D02*
X179306600Y-79726600D01*
X176076800Y-79326400D02*
X175459600Y-79326400D01*
X110542100Y-72045400D02*
X106177500Y-76410000D01*
X176477000Y-79726600D02*
X176076800Y-79326400D01*
X158225600Y-78917700D02*
X151353300Y-72045400D01*
X151353300Y-72045400D02*
X110542100Y-72045400D01*
X179306600Y-79726600D02*
X176477000Y-79726600D01*
X175459600Y-79326400D02*
X175050900Y-78917700D01*
%TO.N,Net-(U2-GPA3)*%
X174980900Y-77662500D02*
X158182000Y-77662500D01*
X183240000Y-81120000D02*
X181439400Y-79319400D01*
X176637800Y-79319400D02*
X174980900Y-77662500D01*
X181439400Y-79319400D02*
X176637800Y-79319400D01*
X121202200Y-58097200D02*
X120465000Y-57360000D01*
X152163200Y-71643700D02*
X132403500Y-71643700D01*
X158182000Y-77662500D02*
X152163200Y-71643700D01*
X132403500Y-71643700D02*
X121202200Y-60442400D01*
X121202200Y-60442400D02*
X121202200Y-58097200D01*
%TO.N,Net-(D11-A)*%
X154400000Y-140650000D02*
X154400000Y-141200000D01*
X148600000Y-134850000D02*
X154400000Y-140650000D01*
%TO.N,Net-(D12-A)*%
X173450000Y-141200000D02*
X167650000Y-135400000D01*
X167650000Y-135400000D02*
X167650000Y-134850000D01*
%TO.N,Net-(D5-A)*%
X144875000Y-102550000D02*
X144875000Y-103100000D01*
X139075000Y-96750000D02*
X144875000Y-102550000D01*
%TD*%
M02*
