%TF.GenerationSoftware,KiCad,Pcbnew,10.0.0*%
%TF.CreationDate,2026-05-27T14:26:36+05:00*%
%TF.ProjectId,HackPad,4861636b-5061-4642-9e6b-696361645f70,rev?*%
%TF.SameCoordinates,Original*%
%TF.FileFunction,Soldermask,Top*%
%TF.FilePolarity,Negative*%
%FSLAX46Y46*%
G04 Gerber Fmt 4.6, Leading zero omitted, Abs format (unit mm)*
G04 Created by KiCad (PCBNEW 10.0.0) date 2026-05-27 14:26:36*
%MOMM*%
%LPD*%
G01*
G04 APERTURE LIST*
G04 Aperture macros list*
%AMRoundRect*
0 Rectangle with rounded corners*
0 $1 Rounding radius*
0 $2 $3 $4 $5 $6 $7 $8 $9 X,Y pos of 4 corners*
0 Add a 4 corners polygon primitive as box body*
4,1,4,$2,$3,$4,$5,$6,$7,$8,$9,$2,$3,0*
0 Add four circle primitives for the rounded corners*
1,1,$1+$1,$2,$3*
1,1,$1+$1,$4,$5*
1,1,$1+$1,$6,$7*
1,1,$1+$1,$8,$9*
0 Add four rect primitives between the rounded corners*
20,1,$1+$1,$2,$3,$4,$5,0*
20,1,$1+$1,$4,$5,$6,$7,0*
20,1,$1+$1,$6,$7,$8,$9,0*
20,1,$1+$1,$8,$9,$2,$3,0*%
G04 Aperture macros list end*
%ADD10C,0.500000*%
%ADD11C,3.200000*%
%ADD12RoundRect,0.225000X0.375000X-0.225000X0.375000X0.225000X-0.375000X0.225000X-0.375000X-0.225000X0*%
%ADD13C,1.700000*%
%ADD14C,4.000000*%
%ADD15C,2.200000*%
%ADD16R,3.500000X1.700000*%
%ADD17O,3.600000X1.700000*%
%ADD18O,3.700000X1.700000*%
%ADD19RoundRect,0.250000X-0.475000X0.337500X-0.475000X-0.337500X0.475000X-0.337500X0.475000X0.337500X0*%
%ADD20RoundRect,0.250000X-0.550000X0.550000X-0.550000X-0.550000X0.550000X-0.550000X0.550000X0.550000X0*%
%ADD21C,1.600000*%
%ADD22R,1.700000X1.700000*%
G04 APERTURE END LIST*
D10*
%TO.C,BP3*%
X151750000Y-91500000D03*
X151750000Y-90000000D03*
X151000000Y-91500000D03*
X151000000Y-90000000D03*
X150250000Y-91500000D03*
X150250000Y-90000000D03*
%TD*%
%TO.C,BP2*%
X192500000Y-90000000D03*
X192500000Y-91500000D03*
X193250000Y-90000000D03*
X193250000Y-91500000D03*
X194000000Y-90000000D03*
X194000000Y-91500000D03*
%TD*%
%TO.C,BP1*%
X105500000Y-90000000D03*
X105500000Y-91500000D03*
X106250000Y-90000000D03*
X106250000Y-91500000D03*
X107000000Y-90000000D03*
X107000000Y-91500000D03*
%TD*%
D11*
%TO.C,H2*%
X145500000Y-60000000D03*
%TD*%
D12*
%TO.C,D13*%
X192500000Y-144500000D03*
X192500000Y-141200000D03*
%TD*%
%TO.C,D1*%
X132615000Y-64470000D03*
X132615000Y-61170000D03*
%TD*%
D13*
%TO.C,SW13*%
X179080000Y-139930000D03*
D14*
X184160000Y-139930000D03*
D13*
X189240000Y-139930000D03*
D15*
X186700000Y-134850000D03*
X180350000Y-137390000D03*
%TD*%
D12*
%TO.C,D9*%
X168687500Y-125450000D03*
X168687500Y-122150000D03*
%TD*%
%TO.C,D3*%
X137377500Y-83520000D03*
X137377500Y-80220000D03*
%TD*%
D13*
%TO.C,SW10*%
X174317500Y-120880000D03*
D14*
X179397500Y-120880000D03*
D13*
X184477500Y-120880000D03*
D15*
X181937500Y-115800000D03*
X175587500Y-118340000D03*
%TD*%
D16*
%TO.C,U1*%
X161000000Y-53000000D03*
D17*
X161000000Y-55540000D03*
X161000000Y-58080000D03*
X161000000Y-60620000D03*
X161000000Y-63160000D03*
X161000000Y-65700000D03*
X161000000Y-68240000D03*
X178250000Y-68240000D03*
X178250000Y-65700000D03*
X178250000Y-63160000D03*
D18*
X178250000Y-60620000D03*
X178250000Y-58080000D03*
X178250000Y-55540000D03*
X178250000Y-53000000D03*
%TD*%
D11*
%TO.C,H5*%
X165250000Y-85800000D03*
%TD*%
D12*
%TO.C,D7*%
X182975000Y-106400000D03*
X182975000Y-103100000D03*
%TD*%
D13*
%TO.C,SW7*%
X169555000Y-101830000D03*
D14*
X174635000Y-101830000D03*
D13*
X179715000Y-101830000D03*
D15*
X177175000Y-96750000D03*
X170825000Y-99290000D03*
%TD*%
D12*
%TO.C,D6*%
X163925000Y-106400000D03*
X163925000Y-103100000D03*
%TD*%
%TO.C,D4*%
X156427500Y-83520000D03*
X156427500Y-80220000D03*
%TD*%
%TO.C,D2*%
X118327500Y-83520000D03*
X118327500Y-80220000D03*
%TD*%
D11*
%TO.C,H4*%
X115000000Y-97000000D03*
%TD*%
%TO.C,H6*%
X193500000Y-97930000D03*
%TD*%
D19*
%TO.C,C1*%
X182000000Y-55925000D03*
X182000000Y-58000000D03*
%TD*%
D13*
%TO.C,SW4*%
X143007500Y-78950000D03*
D14*
X148087500Y-78950000D03*
D13*
X153167500Y-78950000D03*
D15*
X150627500Y-73870000D03*
X144277500Y-76410000D03*
%TD*%
D11*
%TO.C,H7*%
X195500000Y-126430000D03*
%TD*%
D12*
%TO.C,D8*%
X149637500Y-125450000D03*
X149637500Y-122150000D03*
%TD*%
D13*
%TO.C,SW8*%
X136217500Y-120880000D03*
D14*
X141297500Y-120880000D03*
D13*
X146377500Y-120880000D03*
D15*
X143837500Y-115800000D03*
X137487500Y-118340000D03*
%TD*%
D20*
%TO.C,U2*%
X193400000Y-73500000D03*
D21*
X190860000Y-73500000D03*
X188320000Y-73500000D03*
X185780000Y-73500000D03*
X183240000Y-73500000D03*
X180700000Y-73500000D03*
X178160000Y-73500000D03*
X175620000Y-73500000D03*
X173080000Y-73500000D03*
X170540000Y-73500000D03*
X168000000Y-73500000D03*
X165460000Y-73500000D03*
X162920000Y-73500000D03*
X160380000Y-73500000D03*
X160380000Y-81120000D03*
X162920000Y-81120000D03*
X165460000Y-81120000D03*
X168000000Y-81120000D03*
X170540000Y-81120000D03*
X173080000Y-81120000D03*
X175620000Y-81120000D03*
X178160000Y-81120000D03*
X180700000Y-81120000D03*
X183240000Y-81120000D03*
X185780000Y-81120000D03*
X188320000Y-81120000D03*
X190860000Y-81120000D03*
X193400000Y-81120000D03*
%TD*%
D13*
%TO.C,SW3*%
X123957500Y-78950000D03*
D14*
X129037500Y-78950000D03*
D13*
X134117500Y-78950000D03*
D15*
X131577500Y-73870000D03*
X125227500Y-76410000D03*
%TD*%
D22*
%TO.C,J1*%
X198000000Y-52980000D03*
D13*
X198000000Y-55520000D03*
X198000000Y-58060000D03*
X198000000Y-60600000D03*
X198000000Y-63140000D03*
X198000000Y-65680000D03*
X198000000Y-68220000D03*
X198000000Y-70760000D03*
X198000000Y-73300000D03*
X198000000Y-75840000D03*
X198000000Y-78380000D03*
X198000000Y-80920000D03*
X198000000Y-83460000D03*
X198000000Y-86000000D03*
%TD*%
%TO.C,SW11*%
X140980000Y-139930000D03*
D14*
X146060000Y-139930000D03*
D13*
X151140000Y-139930000D03*
D15*
X148600000Y-134850000D03*
X142250000Y-137390000D03*
%TD*%
D13*
%TO.C,SW9*%
X155267500Y-120880000D03*
D14*
X160347500Y-120880000D03*
D13*
X165427500Y-120880000D03*
D15*
X162887500Y-115800000D03*
X156537500Y-118340000D03*
%TD*%
D11*
%TO.C,H8*%
X115000000Y-138000000D03*
%TD*%
D13*
%TO.C,SW6*%
X150505000Y-101830000D03*
D14*
X155585000Y-101830000D03*
D13*
X160665000Y-101830000D03*
D15*
X158125000Y-96750000D03*
X151775000Y-99290000D03*
%TD*%
D13*
%TO.C,SW12*%
X160030000Y-139930000D03*
D14*
X165110000Y-139930000D03*
D13*
X170190000Y-139930000D03*
D15*
X167650000Y-134850000D03*
X161300000Y-137390000D03*
%TD*%
D12*
%TO.C,D5*%
X144875000Y-106400000D03*
X144875000Y-103100000D03*
%TD*%
D13*
%TO.C,SW2*%
X104907500Y-78950000D03*
D14*
X109987500Y-78950000D03*
D13*
X115067500Y-78950000D03*
D15*
X112527500Y-73870000D03*
X106177500Y-76410000D03*
%TD*%
D12*
%TO.C,D12*%
X173450000Y-144500000D03*
X173450000Y-141200000D03*
%TD*%
D11*
%TO.C,H1*%
X107000000Y-59500000D03*
%TD*%
D22*
%TO.C,J2*%
X102000000Y-103920000D03*
D13*
X102000000Y-106460000D03*
X102000000Y-109000000D03*
X102000000Y-111540000D03*
X102000000Y-114080000D03*
X102000000Y-116620000D03*
X102000000Y-119160000D03*
X102000000Y-121700000D03*
X102000000Y-124240000D03*
X102000000Y-126780000D03*
X102000000Y-129320000D03*
X102000000Y-131860000D03*
X102000000Y-134400000D03*
X102000000Y-136940000D03*
%TD*%
D12*
%TO.C,D10*%
X187737500Y-125450000D03*
X187737500Y-122150000D03*
%TD*%
D13*
%TO.C,SW1*%
X119195000Y-59900000D03*
D14*
X124275000Y-59900000D03*
D13*
X129355000Y-59900000D03*
D15*
X126815000Y-54820000D03*
X120465000Y-57360000D03*
%TD*%
D13*
%TO.C,SW5*%
X131455000Y-101830000D03*
D14*
X136535000Y-101830000D03*
D13*
X141615000Y-101830000D03*
D15*
X139075000Y-96750000D03*
X132725000Y-99290000D03*
%TD*%
D12*
%TO.C,D11*%
X154400000Y-144500000D03*
X154400000Y-141200000D03*
%TD*%
D11*
%TO.C,H3*%
X188000000Y-61500000D03*
%TD*%
M02*
