M48
; DRILL file KiCad 10.0.0 date 2026-05-27T14:26:39
; FORMAT={-:-/ absolute / metric / decimal}
; #@! TF.CreationDate,2026-05-27T14:26:39+05:00
; #@! TF.GenerationSoftware,Kicad,Pcbnew,10.0.0
; #@! TF.FileFunction,Plated,1,2,PTH
FMAT,2
METRIC
; #@! TA.AperFunction,Plated,PTH,ViaDrill
T1C0.300
; #@! TA.AperFunction,Plated,PTH,ComponentDrill
T2C0.800
; #@! TA.AperFunction,Plated,PTH,ComponentDrill
T3C1.000
; #@! TA.AperFunction,Plated,PTH,ComponentDrill
T4C1.500
%
G90
G05
T1
X104.322Y-106.127
X105.208Y-106.427
X120.5Y-133.5
X157.368Y-125.646
X157.368Y-144.5
X157.78Y-106.4
T2
X160.38Y-73.5
X160.38Y-81.12
X162.92Y-73.5
X162.92Y-81.12
X165.46Y-73.5
X165.46Y-81.12
X168.0Y-73.5
X168.0Y-81.12
X170.54Y-73.5
X170.54Y-81.12
X173.08Y-73.5
X173.08Y-81.12
X175.62Y-73.5
X175.62Y-81.12
X178.16Y-73.5
X178.16Y-81.12
X180.7Y-73.5
X180.7Y-81.12
X183.24Y-73.5
X183.24Y-81.12
X185.78Y-73.5
X185.78Y-81.12
X188.32Y-73.5
X188.32Y-81.12
X190.86Y-73.5
X190.86Y-81.12
X193.4Y-73.5
X193.4Y-81.12
T3
X102.0Y-103.92
X102.0Y-106.46
X102.0Y-109.0
X102.0Y-111.54
X102.0Y-114.08
X102.0Y-116.62
X102.0Y-119.16
X102.0Y-121.7
X102.0Y-124.24
X102.0Y-126.78
X102.0Y-129.32
X102.0Y-131.86
X102.0Y-134.4
X102.0Y-136.94
X162.0Y-53.0
X162.0Y-55.54
X162.0Y-58.08
X162.0Y-60.62
X162.0Y-63.16
X162.0Y-65.7
X162.0Y-68.24
X177.25Y-53.0
X177.25Y-55.54
X177.25Y-58.08
X177.25Y-60.62
X177.25Y-63.16
X177.25Y-65.7
X177.25Y-68.24
X198.0Y-52.98
X198.0Y-55.52
X198.0Y-58.06
X198.0Y-60.6
X198.0Y-63.14
X198.0Y-65.68
X198.0Y-68.22
X198.0Y-70.76
X198.0Y-73.3
X198.0Y-75.84
X198.0Y-78.38
X198.0Y-80.92
X198.0Y-83.46
X198.0Y-86.0
T4
X106.177Y-76.41
X112.527Y-73.87
X120.465Y-57.36
X125.227Y-76.41
X126.815Y-54.82
X131.577Y-73.87
X132.725Y-99.29
X137.487Y-118.34
X139.075Y-96.75
X142.25Y-137.39
X143.838Y-115.8
X144.278Y-76.41
X148.6Y-134.85
X150.627Y-73.87
X151.775Y-99.29
X156.537Y-118.34
X158.125Y-96.75
X161.3Y-137.39
X162.887Y-115.8
X167.65Y-134.85
X170.825Y-99.29
X175.588Y-118.34
X177.175Y-96.75
X180.35Y-137.39
X181.938Y-115.8
X186.7Y-134.85
M30
