%TF.GenerationSoftware,KiCad,Pcbnew,10.0.0*%
%TF.CreationDate,2026-05-27T14:26:36+05:00*%
%TF.ProjectId,HackPad,4861636b-5061-4642-9e6b-696361645f70,rev?*%
%TF.SameCoordinates,Original*%
%TF.FileFunction,Profile,NP*%
%FSLAX46Y46*%
G04 Gerber Fmt 4.6, Leading zero omitted, Abs format (unit mm)*
G04 Created by KiCad (PCBNEW 10.0.0) date 2026-05-27 14:26:36*
%MOMM*%
%LPD*%
G01*
G04 APERTURE LIST*
%TA.AperFunction,Profile*%
%ADD10C,0.050000*%
%TD*%
G04 APERTURE END LIST*
D10*
X191250000Y-89750000D02*
X153000000Y-89750000D01*
X100000000Y-91750000D02*
X104250000Y-91750000D01*
X100000000Y-89750000D02*
X104250000Y-89750000D01*
X108250000Y-91750000D02*
X149000000Y-91750000D01*
X149000000Y-89750000D02*
X108250000Y-89750000D01*
X153000000Y-91750000D02*
X191250000Y-91750000D01*
X200000000Y-91750000D02*
X195250000Y-91750000D01*
X200000000Y-89750000D02*
X195250000Y-89750000D01*
X195250000Y-91750000D02*
G75*
G02*
X195250000Y-89750000I0J1000000D01*
G01*
X191250000Y-89750000D02*
G75*
G02*
X191250000Y-91750000I0J-1000000D01*
G01*
X153000000Y-91750000D02*
G75*
G02*
X153000000Y-89750000I0J1000000D01*
G01*
X149000000Y-89750000D02*
G75*
G02*
X149000000Y-91750000I0J-1000000D01*
G01*
X108250000Y-91750000D02*
G75*
G02*
X108250000Y-89750000I0J1000000D01*
G01*
X104250000Y-89750000D02*
G75*
G02*
X104250000Y-91750000I0J-1000000D01*
G01*
X200000000Y-91750000D02*
X200000000Y-150000000D01*
X200000000Y-50000000D02*
X200000000Y-89750000D01*
X100000000Y-50000000D02*
X200000000Y-50000000D01*
X100000000Y-89750000D02*
X100000000Y-50000000D01*
X100000000Y-150000000D02*
X100000000Y-91750000D01*
X200000000Y-150000000D02*
X100000000Y-150000000D01*
M02*
