M48
; DRILL file KiCad 10.0.0 date 2026-05-27T14:26:39
; FORMAT={-:-/ absolute / metric / decimal}
; #@! TF.CreationDate,2026-05-27T14:26:39+05:00
; #@! TF.GenerationSoftware,Kicad,Pcbnew,10.0.0
; #@! TF.FileFunction,NonPlated,1,2,NPTH
FMAT,2
METRIC
; #@! TA.AperFunction,NonPlated,NPTH,ComponentDrill
T1C0.500
; #@! TA.AperFunction,NonPlated,NPTH,ComponentDrill
T2C1.700
; #@! TA.AperFunction,NonPlated,NPTH,ComponentDrill
T3C3.200
; #@! TA.AperFunction,NonPlated,NPTH,ComponentDrill
T4C4.000
%
G90
G05
T1
X105.5Y-90.0
X105.5Y-91.5
X106.25Y-90.0
X106.25Y-91.5
X107.0Y-90.0
X107.0Y-91.5
X150.25Y-90.0
X150.25Y-91.5
X151.0Y-90.0
X151.0Y-91.5
X151.75Y-90.0
X151.75Y-91.5
X192.5Y-90.0
X192.5Y-91.5
X193.25Y-90.0
X193.25Y-91.5
X194.0Y-90.0
X194.0Y-91.5
T2
X104.907Y-78.95
X115.067Y-78.95
X119.195Y-59.9
X123.957Y-78.95
X129.355Y-59.9
X131.455Y-101.83
X134.118Y-78.95
X136.218Y-120.88
X140.98Y-139.93
X141.615Y-101.83
X143.007Y-78.95
X146.377Y-120.88
X150.505Y-101.83
X151.14Y-139.93
X153.167Y-78.95
X155.267Y-120.88
X160.03Y-139.93
X160.665Y-101.83
X165.427Y-120.88
X169.555Y-101.83
X170.19Y-139.93
X174.317Y-120.88
X179.08Y-139.93
X179.715Y-101.83
X184.477Y-120.88
X189.24Y-139.93
T3
X107.0Y-59.5
X115.0Y-97.0
X115.0Y-138.0
X145.5Y-60.0
X165.25Y-85.8
X188.0Y-61.5
X193.5Y-97.93
X195.5Y-126.43
T4
X109.987Y-78.95
X124.275Y-59.9
X129.037Y-78.95
X136.535Y-101.83
X141.297Y-120.88
X146.06Y-139.93
X148.088Y-78.95
X155.585Y-101.83
X160.347Y-120.88
X165.11Y-139.93
X174.635Y-101.83
X179.397Y-120.88
X184.16Y-139.93
M30
